HIERARCHY
ROOT Hips
{
	OFFSET 0.000000 71.427986 0.000000
	CHANNELS 6 Xposition Yposition Zposition Xrotation Yrotation Zrotation
	JOINT Pelvis
	{
		OFFSET 0.000000 0.000000 0.000000
		CHANNELS 3 Xrotation Yrotation Zrotation
		JOINT LeftUpLeg
		{
			OFFSET 6.797100 -2.508499 -1.318700
			CHANNELS 3 Xrotation Yrotation Zrotation
			JOINT LeftLeg
			{
				OFFSET 0.069008 -29.241863 0.690200
				CHANNELS 3 Xrotation Yrotation Zrotation
				JOINT LeftFoot
				{
					OFFSET -0.069008 -29.568123 -0.266800
					CHANNELS 3 Xrotation Yrotation Zrotation
					JOINT LeftToeBase
					{
						OFFSET 3.145500 -8.631000 16.059900
						CHANNELS 3 Xrotation Yrotation Zrotation
						End Site
						{
							OFFSET 0.000000 18.501587 0.000000
						}
					}
				}
			}
			JOINT Left_ShortSleeve
			{
				OFFSET 0.265923 -10.480953 1.153800
				CHANNELS 3 Xrotation Yrotation Zrotation
				End Site
				{
					OFFSET 1.725763 19.823879 0.000000
				}
			}
		}
		JOINT RightUpLeg
		{
			OFFSET -6.797100 -2.508499 -1.318700
			CHANNELS 3 Xrotation Yrotation Zrotation
			JOINT RightLeg
			{
				OFFSET -0.082453 -29.241932 0.688000
				CHANNELS 3 Xrotation Yrotation Zrotation
				JOINT RightFoot
				{
					OFFSET 0.082453 -29.568058 -0.264600
					CHANNELS 3 Xrotation Yrotation Zrotation
					JOINT RightToeBase
					{
						OFFSET -3.115300 -8.682800 16.113400
						CHANNELS 3 Xrotation Yrotation Zrotation
						End Site
						{
							OFFSET 0.000000 18.567114 0.000000
						}
					}
				}
			}
			JOINT Right_ShortSleeve
			{
				OFFSET -0.265923 -10.480953 1.153800
				CHANNELS 3 Xrotation Yrotation Zrotation
				End Site
				{
					OFFSET -1.725766 19.823910 0.000000
				}
			}
		}
	}
	JOINT Spine
	{
		OFFSET 0.000000 13.368103 0.470500
		CHANNELS 3 Xrotation Yrotation Zrotation
		JOINT Spine1
		{
			OFFSET 0.147000 13.837402 0.538800
			CHANNELS 3 Xrotation Yrotation Zrotation
			JOINT Spine2
			{
				OFFSET 0.168000 16.242897 -1.435500
				CHANNELS 3 Xrotation Yrotation Zrotation
				JOINT Neck
				{
					OFFSET 0.217200 18.631500 -1.679100
					CHANNELS 3 Xrotation Yrotation Zrotation
					JOINT Head
					{
						OFFSET 0.000000 6.599396 1.385900
						CHANNELS 3 Xrotation Yrotation Zrotation
						JOINT Hat
						{
							OFFSET -0.532200 27.220596 -10.096100
							CHANNELS 3 Xrotation Yrotation Zrotation
							End Site
							{
								OFFSET 0.000000 22.029861 0.000000
							}
						}
						JOINT HairD
						{
							OFFSET -10.777400 17.437393 -1.325900
							CHANNELS 3 Xrotation Yrotation Zrotation
							JOINT HairD1
							{
								OFFSET -3.290299 -11.051193 1.062200
								CHANNELS 3 Xrotation Yrotation Zrotation
								End Site
								{
									OFFSET 0.000000 11.579437 0.000000
								}
							}
						}
						JOINT HairB
						{
							OFFSET -10.777400 17.437393 1.467900
							CHANNELS 3 Xrotation Yrotation Zrotation
							JOINT HairB1
							{
								OFFSET -1.561200 -12.956299 3.590200
								CHANNELS 3 Xrotation Yrotation Zrotation
								End Site
								{
									OFFSET 0.000000 13.534866 0.000000
								}
							}
						}
						JOINT HairA
						{
							OFFSET 9.713100 17.437393 1.467900
							CHANNELS 3 Xrotation Yrotation Zrotation
							JOINT HairA1
							{
								OFFSET 1.561200 -12.956299 3.590200
								CHANNELS 3 Xrotation Yrotation Zrotation
								End Site
								{
									OFFSET 0.000000 13.534866 0.000000
								}
							}
						}
						JOINT HairC
						{
							OFFSET 9.713100 17.437393 -1.325900
							CHANNELS 3 Xrotation Yrotation Zrotation
							JOINT HairC1
							{
								OFFSET 3.290300 -11.051193 1.062200
								CHANNELS 3 Xrotation Yrotation Zrotation
								End Site
								{
									OFFSET 0.000000 11.579437 0.000000
								}
							}
						}
					}
				}
				JOINT LeftShoulder
				{
					OFFSET 5.101800 15.108002 -2.763700
					CHANNELS 3 Xrotation Yrotation Zrotation
					JOINT LeftArm
					{
						OFFSET 9.825497 2.506317 -1.597400
						CHANNELS 3 Xrotation Yrotation Zrotation
						JOINT LeftForeArm
						{
							OFFSET 21.966244 0.000000 0.000000
							CHANNELS 3 Xrotation Yrotation Zrotation
							JOINT LeftHand
							{
								OFFSET 33.879036 0.000000 0.000000
								CHANNELS 3 Xrotation Yrotation Zrotation
								JOINT LeftHandThumb1
								{
									OFFSET 6.715286 -2.359680 3.363841
									CHANNELS 3 Xrotation Yrotation Zrotation
									JOINT LeftHandThumb2
									{
										OFFSET 2.507072 -1.447464 1.447461
										CHANNELS 3 Xrotation Yrotation Zrotation
										JOINT LeftHandThumb3
										{
											OFFSET 2.898338 -1.673355 1.673357
											CHANNELS 3 Xrotation Yrotation Zrotation
											End Site
											{
												OFFSET -0.295959 3.727692 -0.131651
											}
										}
									}
								}
								JOINT LeftHandIndex1
								{
									OFFSET 14.190811 -0.254547 3.840278
									CHANNELS 3 Xrotation Yrotation Zrotation
									JOINT LeftHandIndex2
									{
										OFFSET 3.551727 0.000000 -0.000000
										CHANNELS 3 Xrotation Yrotation Zrotation
										JOINT LeftHandIndex3
										{
											OFFSET 2.894196 0.000000 0.000000
											CHANNELS 3 Xrotation Yrotation Zrotation
											End Site
											{
												OFFSET -1.000603 2.690872 0.366626
											}
										}
									}
								}
								JOINT LeftHandMiddle1
								{
									OFFSET 13.776489 0.000000 0.000000
									CHANNELS 3 Xrotation Yrotation Zrotation
									JOINT LeftHandMiddle2
									{
										OFFSET 3.438232 0.000000 0.000000
										CHANNELS 3 Xrotation Yrotation Zrotation
										JOINT LeftHandMiddle3
										{
											OFFSET 3.691551 0.000000 0.000000
											CHANNELS 3 Xrotation Yrotation Zrotation
											End Site
											{
												OFFSET -1.082298 3.499527 0.457670
											}
										}
									}
								}
								JOINT LeftHandRing1
								{
									OFFSET 13.966164 -0.268127 -3.067488
									CHANNELS 3 Xrotation Yrotation Zrotation
									JOINT LeftHandRing2
									{
										OFFSET 3.162567 0.000000 0.000000
										CHANNELS 3 Xrotation Yrotation Zrotation
										JOINT LeftHandRing3
										{
											OFFSET 3.324348 0.000000 0.000000
											CHANNELS 3 Xrotation Yrotation Zrotation
											End Site
											{
												OFFSET -0.861900 3.184998 0.405154
											}
										}
									}
								}
								JOINT LeftHandPinky1
								{
									OFFSET 13.131393 -0.168503 -5.746925
									CHANNELS 3 Xrotation Yrotation Zrotation
									JOINT LeftHandPinky2
									{
										OFFSET 2.849182 0.000000 0.000000
										CHANNELS 3 Xrotation Yrotation Zrotation
										JOINT LeftHandPinky3
										{
											OFFSET 2.805038 0.000000 0.000000
											CHANNELS 3 Xrotation Yrotation Zrotation
											End Site
											{
												OFFSET -0.882500 2.642609 0.325652
											}
										}
									}
								}
							}
							JOINT Left_Sleeve
							{
								OFFSET 6.592125 -0.646545 0.805568
								CHANNELS 3 Xrotation Yrotation Zrotation
								End Site
								{
									OFFSET -0.000179 20.275787 -0.000000
								}
							}
						}
					}
				}
				JOINT RightShoulder
				{
					OFFSET -5.731700 15.108002 -2.763700
					CHANNELS 3 Xrotation Yrotation Zrotation
					JOINT RightArm
					{
						OFFSET -9.825497 2.506317 -1.597400
						CHANNELS 3 Xrotation Yrotation Zrotation
						JOINT RightForeArm
						{
							OFFSET -21.966242 0.000000 0.000000
							CHANNELS 3 Xrotation Yrotation Zrotation
							JOINT RightHand
							{
								OFFSET -33.879032 0.000000 0.000000
								CHANNELS 3 Xrotation Yrotation Zrotation
								JOINT RightHandThumb1
								{
									OFFSET -6.715286 -2.359680 3.363841
									CHANNELS 3 Xrotation Yrotation Zrotation
									JOINT RightHandThumb2
									{
										OFFSET -2.507072 -1.447464 1.447461
										CHANNELS 3 Xrotation Yrotation Zrotation
										JOINT RightHandThumb3
										{
											OFFSET -2.898338 -1.673355 1.673357
											CHANNELS 3 Xrotation Yrotation Zrotation
											End Site
											{
												OFFSET 0.295959 3.727692 -0.131651
											}
										}
									}
								}
								JOINT RightHandIndex1
								{
									OFFSET -14.190811 -0.254547 3.840278
									CHANNELS 3 Xrotation Yrotation Zrotation
									JOINT RightHandIndex2
									{
										OFFSET -3.551727 0.000000 -0.000000
										CHANNELS 3 Xrotation Yrotation Zrotation
										JOINT RightHandIndex3
										{
											OFFSET -2.894196 0.000000 0.000000
											CHANNELS 3 Xrotation Yrotation Zrotation
											End Site
											{
												OFFSET 1.000603 2.690872 0.366626
											}
										}
									}
								}
								JOINT RightHandMiddle1
								{
									OFFSET -13.776489 0.000000 0.000000
									CHANNELS 3 Xrotation Yrotation Zrotation
									JOINT RightHandMiddle2
									{
										OFFSET -3.438232 0.000000 0.000000
										CHANNELS 3 Xrotation Yrotation Zrotation
										JOINT RightHandMiddle3
										{
											OFFSET -3.691551 0.000000 0.000000
											CHANNELS 3 Xrotation Yrotation Zrotation
											End Site
											{
												OFFSET 1.082298 3.499527 0.457670
											}
										}
									}
								}
								JOINT RightHandRing1
								{
									OFFSET -13.966164 -0.268127 -3.067488
									CHANNELS 3 Xrotation Yrotation Zrotation
									JOINT RightHandRing2
									{
										OFFSET -3.162567 0.000000 0.000000
										CHANNELS 3 Xrotation Yrotation Zrotation
										JOINT RightHandRing3
										{
											OFFSET -3.324348 0.000000 0.000000
											CHANNELS 3 Xrotation Yrotation Zrotation
											End Site
											{
												OFFSET 0.861900 3.184998 0.405154
											}
										}
									}
								}
								JOINT RightHandPinky1
								{
									OFFSET -13.131393 -0.168503 -5.746925
									CHANNELS 3 Xrotation Yrotation Zrotation
									JOINT RightHandPinky2
									{
										OFFSET -2.849182 0.000000 0.000000
										CHANNELS 3 Xrotation Yrotation Zrotation
										JOINT RightHandPinky3
										{
											OFFSET -2.805038 0.000000 0.000000
											CHANNELS 3 Xrotation Yrotation Zrotation
											End Site
											{
												OFFSET 0.882500 2.642609 0.325652
											}
										}
									}
								}
							}
							JOINT Right_Sleeve
							{
								OFFSET -6.592125 -0.646545 0.805568
								CHANNELS 3 Xrotation Yrotation Zrotation
								End Site
								{
									OFFSET 0.000179 20.275787 -0.000000
								}
							}
						}
					}
				}
				JOINT Bind_Right_JacketString
				{
					OFFSET -3.534800 11.969597 7.200700
					CHANNELS 3 Xrotation Yrotation Zrotation
					JOINT Bind_Right_JacketString1
					{
						OFFSET -0.319900 -6.102600 2.794100
						CHANNELS 3 Xrotation Yrotation Zrotation
						End Site
						{
							OFFSET 0.000000 6.719452 0.000000
						}
					}
				}
				JOINT Bind_Left_JacketString
				{
					OFFSET 2.904800 11.969597 7.200700
					CHANNELS 3 Xrotation Yrotation Zrotation
					JOINT Bind_Left_JacketString1
					{
						OFFSET 0.364800 -5.904503 3.186800
						CHANNELS 3 Xrotation Yrotation Zrotation
						End Site
						{
							OFFSET 0.000000 6.719513 0.000000
						}
					}
				}
				JOINT HairE
				{
					OFFSET 5.915200 17.612701 -11.592200
					CHANNELS 3 Xrotation Yrotation Zrotation
					JOINT HairE1
					{
						OFFSET 0.289200 -7.171898 -1.284500
						CHANNELS 3 Xrotation Yrotation Zrotation
						End Site
						{
							OFFSET 0.000000 7.291756 0.000000
						}
					}
				}
				JOINT HairF
				{
					OFFSET -0.864800 17.612701 -11.592200
					CHANNELS 3 Xrotation Yrotation Zrotation
					JOINT HairF1
					{
						OFFSET 0.000000 -14.087097 -2.127501
						CHANNELS 3 Xrotation Yrotation Zrotation
						End Site
						{
							OFFSET 0.000000 14.246841 0.000000
						}
					}
				}
				JOINT HairG
				{
					OFFSET -8.087700 17.612701 -11.592200
					CHANNELS 3 Xrotation Yrotation Zrotation
					JOINT HairG1
					{
						OFFSET -0.293600 -6.081398 -0.910100
						CHANNELS 3 Xrotation Yrotation Zrotation
						End Site
						{
							OFFSET 0.000000 6.156120 0.000000
						}
					}
				}
			}
		}
	}
	JOINT Pouch
	{
		OFFSET 0.000000 4.394501 10.847300
		CHANNELS 3 Xrotation Yrotation Zrotation
		End Site
		{
			OFFSET 0.000000 21.880577 0.000000
		}
	}
	JOINT Bag
	{
		OFFSET -13.229000 4.813004 -0.593300
		CHANNELS 3 Xrotation Yrotation Zrotation
		End Site
		{
			OFFSET 0.000000 21.880577 0.000000
		}
	}
	JOINT OccupyGuyFacialAnim_Joint
	{
		OFFSET 1.000000 -70.206398 -1.655000
		CHANNELS 3 Xrotation Yrotation Zrotation
		End Site
		{
			OFFSET 0.000000 21.880577 0.000000
		}
	}
}
MOTION
Frames: 5
Frame Time: 0.033333
-0.066761 70.511856 1.283501 -6.108647 -2.868306 -2.634937 0.000000 0.000000 0.000000 -4.223852 9.351610 7.907734 21.355567 -10.079665 3.369412 -13.306109 -4.563781 -5.154316 0.000000 -0.000000 -0.000000 0.000001 -0.000001 -0.000000 -5.318812 -5.085658 -1.538845 19.759141 10.104521 -2.485610 -9.315873 11.494548 0.667709 0.000000 -0.000001 0.000000 0.000000 0.000000 -0.000000 7.928039 4.580447 0.844626 15.506010 1.313482 -0.228271 15.512458 1.299851 -0.279244 2.708748 -0.826023 -0.005281 19.082507 -4.992000 4.332993 -0.000000 0.000000 0.000000 -0.000000 0.000000 0.000000 -0.000000 0.000000 0.000000 -0.000000 0.000000 -0.000000 0.000002 0.000001 -0.000000 -0.000000 0.000000 -0.000000 0.000002 0.000001 -0.000000 -0.000000 0.000000 0.000000 -0.000000 0.000000 0.000000 0.894603 -16.387089 -20.711796 -22.333624 -15.699827 -54.857245 0.000006 -5.026645 0.000010 -4.971978 -1.341838 -6.582558 -0.266450 4.548707 10.792681 14.081221 6.218281 10.788913 -0.000000 0.000001 0.000000 0.204040 3.652476 -14.856473 0.530647 2.438281 -24.552524 0.000001 0.000001 -0.000000 1.303317 7.387712 -16.322364 0.454975 2.265468 -22.708589 0.000002 0.000000 -0.000003 1.739697 8.580054 -17.229181 1.308144 3.691269 -39.016735 0.000002 0.000002 0.000003 0.758056 5.168018 -23.679906 0.713249 2.803368 -28.544158 -0.000002 -0.000001 -0.000001 0.000001 -0.000000 -0.000000 -1.165910 14.513747 23.868581 -21.479299 8.528833 53.836111 0.000002 4.461676 0.000010 -3.100605 1.163718 1.690509 -6.439872 1.666973 -14.227988 17.750567 -20.831110 7.630742 -0.000002 0.000002 0.000004 -1.315353 3.015274 14.433195 0.617909 -2.320002 29.823782 -0.000002 -0.000000 -0.000003 -1.183829 0.855428 17.866361 1.041089 -2.936766 39.031983 -0.000000 0.000000 0.000003 -0.099489 -2.403334 15.770224 1.477865 -3.404875 46.915897 0.000000 -0.000000 0.000002 -12.813795 -11.028492 13.057122 1.001209 -2.886966 38.247051 -0.000001 -0.000000 -0.000001 0.000000 -0.000000 0.000000 0.000001 0.000000 -0.000000 0.000001 0.000000 -0.000000 0.000001 0.000000 -0.000000 0.000001 0.000000 -0.000000 0.000001 0.000000 -0.000000 0.000001 0.000000 -0.000000 0.000001 0.000000 -0.000000 0.000001 0.000000 -0.000000 0.000001 0.000000 -0.000000 0.000001 0.000000 -0.000000 0.000000 0.000000 0.000000 0.000000 0.000000 0.000000 0.000000 0.000000 0.000000 
-0.101099 70.506439 1.313046 -6.166893 -2.865403 -2.639221 0.000000 0.000000 0.000000 -4.144905 9.378048 7.945989 21.356408 -10.083599 3.379159 -13.319880 -4.561567 -5.192449 0.000000 -0.000001 0.000000 0.000001 0.000000 -0.000000 -5.281925 -5.086180 -1.509539 19.873228 10.097087 -2.484001 -9.392609 11.496330 0.614020 -0.000000 -0.000000 -0.000000 0.000000 0.000001 0.000000 7.958495 4.590296 0.843104 15.517193 1.313942 -0.232165 15.523630 1.300452 -0.282978 2.723354 -0.826893 -0.020131 19.130781 -5.029600 4.306940 -0.000003 0.000000 0.000000 -0.000003 0.000000 0.000000 -0.000003 0.000000 0.000000 -0.000003 0.000000 -0.000000 -0.000001 0.000000 -0.000000 -0.000003 0.000000 -0.000000 -0.000001 0.000000 -0.000000 -0.000003 0.000000 0.000000 -0.000003 0.000000 0.000000 0.891937 -16.380894 -20.751095 -22.338624 -15.659778 -54.830915 -0.000000 -4.993899 -0.000002 -4.950772 -1.447714 -6.421887 -0.266444 4.548707 10.792682 14.081223 6.218277 10.788912 -0.000001 -0.000001 0.000002 0.204042 3.652475 -14.856473 0.530648 2.438282 -24.552522 -0.000000 -0.000001 0.000001 1.303318 7.387711 -16.322364 0.454973 2.265469 -22.708591 0.000001 0.000003 -0.000004 1.739701 8.580055 -17.229188 1.308146 3.691267 -39.016735 -0.000002 0.000001 0.000001 0.758059 5.168017 -23.679911 0.713248 2.803366 -28.544165 0.000000 0.000000 0.000001 0.000002 -0.000000 -0.000000 -1.160518 14.526593 23.810012 -21.416150 8.527435 53.814627 -0.000002 4.340277 0.000001 -3.532264 1.371182 2.038662 -6.439875 1.666976 -14.227988 17.750571 -20.831110 7.630750 -0.000001 -0.000001 0.000000 -1.315357 3.015275 14.433194 0.617909 -2.320005 29.823785 0.000002 -0.000001 0.000002 -1.183828 0.855428 17.866358 1.041090 -2.936766 39.031980 0.000000 -0.000001 0.000003 -0.099491 -2.403333 15.770224 1.477864 -3.404874 46.915900 0.000000 -0.000002 0.000001 -12.813797 -11.028494 13.057126 1.001210 -2.886966 38.247051 -0.000001 0.000000 0.000002 0.000001 -0.000000 0.000000 0.000001 0.000000 -0.000000 0.000001 -0.000000 -0.000000 0.000001 0.000000 -0.000000 0.000001 0.000000 -0.000000 0.000001 0.000000 -0.000000 0.000001 -0.000000 -0.000000 0.000001 0.000000 -0.000000 0.000001 0.000000 -0.000000 0.000001 0.000000 -0.000000 0.000001 -0.000000 -0.000000 0.000000 0.000000 0.000000 0.000000 0.000000 0.000000 0.000000 0.000000 0.000000 
-0.154394 70.496681 1.356271 -6.238743 -2.828814 -2.651780 -0.000000 -0.000000 0.000000 -4.057746 9.404166 8.014675 21.365856 -10.075560 3.392807 -13.326397 -4.605449 -5.253149 0.000000 0.000001 0.000000 -0.000000 0.000000 0.000000 -5.250462 -5.090749 -1.456414 20.071950 10.056469 -2.473273 -9.523381 11.499102 0.507702 -0.000000 -0.000000 -0.000000 0.000000 0.000001 -0.000000 7.995086 4.589004 0.861969 15.530650 1.311412 -0.232127 15.537068 1.298107 -0.282949 2.747458 -0.828776 -0.049591 19.214138 -5.094497 4.244978 -0.000003 -0.000000 -0.000000 -0.000003 -0.000000 -0.000000 -0.000003 -0.000000 -0.000000 -0.000003 -0.000000 -0.000000 0.000001 0.000000 0.000000 -0.000003 -0.000000 -0.000000 0.000001 0.000000 0.000000 -0.000003 -0.000000 -0.000000 -0.000003 -0.000000 -0.000000 0.881784 -16.382200 -20.849257 -22.336708 -15.596392 -54.775423 0.000003 -4.951773 -0.000007 -4.878778 -1.640634 -6.092898 -0.266447 4.548708 10.792682 14.081226 6.218279 10.788908 0.000002 0.000001 0.000001 0.204038 3.652474 -14.856471 0.530652 2.438283 -24.552522 -0.000000 0.000000 0.000002 1.303317 7.387710 -16.322366 0.454973 2.265469 -22.708583 0.000002 -0.000001 0.000000 1.739697 8.580054 -17.229186 1.308145 3.691267 -39.016742 -0.000001 0.000002 -0.000002 0.758058 5.168017 -23.679911 0.713244 2.803367 -28.544160 0.000001 -0.000001 0.000001 0.000002 -0.000000 -0.000000 -1.146608 14.554168 23.665537 -21.312454 8.486346 53.800802 -0.000001 4.151483 0.000015 -4.327260 1.691750 2.594404 -6.439876 1.666979 -14.227987 17.750572 -20.831112 7.630745 0.000002 0.000001 0.000001 -1.315354 3.015275 14.433195 0.617906 -2.320000 29.823785 0.000000 -0.000002 -0.000003 -1.183826 0.855428 17.866363 1.041093 -2.936768 39.031987 -0.000000 0.000001 -0.000001 -0.099490 -2.403334 15.770225 1.477865 -3.404874 46.915903 -0.000000 0.000001 0.000000 -12.813794 -11.028496 13.057125 1.001209 -2.886964 38.247051 -0.000001 0.000000 0.000002 0.000002 -0.000000 -0.000000 -0.000001 0.000000 -0.000000 0.000001 0.000000 0.000000 -0.000001 0.000000 0.000000 -0.000001 0.000000 0.000000 -0.000001 0.000000 -0.000000 0.000001 0.000000 0.000000 -0.000001 0.000000 0.000000 -0.000001 0.000000 0.000000 -0.000001 0.000000 -0.000000 0.000001 0.000000 0.000000 -0.000000 -0.000000 0.000000 -0.000000 -0.000000 0.000000 -0.000000 -0.000000 0.000000 
-0.226107 70.479111 1.418936 -6.344446 -2.765594 -2.669811 -0.000001 -0.000000 -0.000000 -3.963436 9.455407 8.124231 21.435191 -10.090337 3.386218 -13.368511 -4.738752 -5.307519 -0.000000 -0.000000 -0.000000 -0.000000 0.000000 -0.000000 -5.229457 -5.069856 -1.359838 20.427667 9.948566 -2.494794 -9.755990 11.503002 0.348358 0.000000 -0.000001 0.000000 -0.000001 0.000001 -0.000000 8.046619 4.584346 0.892018 15.552185 1.308053 -0.234063 15.558556 1.294986 -0.285410 2.786156 -0.832881 -0.093379 19.344351 -5.184529 4.134641 -0.000003 0.000000 -0.000000 -0.000003 0.000000 -0.000000 -0.000003 0.000000 -0.000000 -0.000003 0.000000 -0.000000 0.000001 -0.000000 0.000000 -0.000003 0.000000 -0.000000 0.000001 -0.000000 0.000000 -0.000003 0.000000 -0.000000 -0.000003 0.000000 -0.000000 0.873002 -16.367049 -20.967883 -22.368209 -15.525102 -54.748020 -0.000005 -4.813730 0.000005 -4.833812 -1.952787 -5.524066 -0.266447 4.548706 10.792681 14.081227 6.218277 10.788913 -0.000001 -0.000000 0.000000 0.204041 3.652474 -14.856471 0.530647 2.438282 -24.552517 0.000002 0.000000 0.000002 1.303318 7.387713 -16.322366 0.454975 2.265469 -22.708588 0.000000 0.000000 0.000004 1.739700 8.580054 -17.229185 1.308145 3.691267 -39.016732 -0.000001 0.000002 -0.000002 0.758059 5.168017 -23.679907 0.713244 2.803366 -28.544160 -0.000001 -0.000001 0.000001 0.000001 0.000000 -0.000000 -1.134171 14.616369 23.488822 -21.176165 8.349360 53.740075 0.000003 3.956029 0.000004 -5.368192 1.987343 3.353558 -6.439875 1.666978 -14.227986 17.750567 -20.831110 7.630750 -0.000001 0.000000 -0.000000 -1.315355 3.015276 14.433192 0.617908 -2.320004 29.823789 0.000001 -0.000002 -0.000004 -1.183828 0.855428 17.866361 1.041093 -2.936766 39.031983 -0.000000 -0.000001 -0.000004 -0.099490 -2.403334 15.770222 1.477860 -3.404873 46.915907 -0.000002 -0.000001 -0.000001 -12.813793 -11.028493 13.057126 1.001209 -2.886967 38.247051 0.000000 -0.000001 0.000002 0.000001 0.000000 0.000000 -0.000001 -0.000000 -0.000000 0.000001 0.000000 -0.000000 -0.000001 -0.000000 -0.000000 -0.000001 -0.000000 -0.000000 -0.000001 -0.000000 -0.000000 0.000001 0.000000 -0.000000 -0.000001 -0.000000 -0.000000 -0.000001 -0.000000 -0.000000 -0.000001 -0.000000 -0.000000 0.000001 0.000000 -0.000000 -0.000001 -0.000000 -0.000000 -0.000001 -0.000000 -0.000000 -0.000001 -0.000000 -0.000000 
-0.324121 70.445015 1.521776 -6.511294 -2.650350 -2.691894 0.000000 0.000000 0.000000 -3.838950 9.550012 8.323461 21.578714 -10.087209 3.341245 -13.437992 -4.939081 -5.384595 -0.000000 -0.000000 -0.000000 -0.000000 0.000001 0.000000 -5.189316 -4.997249 -1.187212 20.988671 9.725259 -2.597567 -10.141555 11.505508 0.193589 0.000000 0.000001 -0.000000 -0.000001 -0.000001 -0.000000 8.105338 4.578820 0.926507 15.591751 1.303387 -0.247767 15.597985 1.291050 -0.299610 2.850982 -0.840406 -0.149596 19.562582 -5.293970 3.948011 -0.000000 0.000000 0.000000 -0.000000 0.000000 0.000000 -0.000000 0.000000 0.000000 -0.000000 0.000000 0.000000 -0.000000 -0.000000 0.000000 -0.000000 0.000000 0.000000 -0.000000 -0.000000 0.000000 -0.000000 0.000000 0.000000 -0.000000 0.000000 0.000000 0.875965 -16.315801 -21.045078 -22.521932 -15.394005 -54.824651 -0.000003 -4.462898 0.000006 -5.027360 -2.461410 -4.591211 -0.266447 4.548707 10.792682 14.081225 6.218281 10.788910 -0.000000 0.000001 0.000001 0.204039 3.652474 -14.856474 0.530648 2.438281 -24.552524 -0.000001 0.000000 0.000002 1.303317 7.387711 -16.322366 0.454971 2.265469 -22.708591 0.000000 -0.000000 0.000001 1.739695 8.580055 -17.229188 1.308146 3.691269 -39.016735 0.000000 0.000001 -0.000001 0.758055 5.168019 -23.679909 0.713246 2.803368 -28.544160 -0.000002 -0.000001 0.000001 0.000001 0.000000 0.000000 -1.135451 14.698471 23.394986 -20.953687 8.132349 53.514081 0.000000 3.810419 0.000009 -6.322598 2.138279 4.331533 -6.439874 1.666978 -14.227988 17.750572 -20.831112 7.630746 0.000001 0.000001 0.000003 -1.315354 3.015274 14.433197 0.617906 -2.320003 29.823785 0.000000 -0.000001 0.000000 -1.183828 0.855429 17.866358 1.041091 -2.936767 39.031983 0.000001 -0.000000 -0.000003 -0.099491 -2.403333 15.770224 1.477864 -3.404875 46.915903 0.000001 0.000002 0.000002 -12.813794 -11.028496 13.057126 1.001210 -2.886965 38.247048 -0.000000 0.000000 -0.000001 0.000000 -0.000000 -0.000000 0.000001 -0.000000 0.000000 0.000001 -0.000000 0.000000 0.000001 -0.000000 0.000000 0.000001 -0.000000 0.000000 0.000001 -0.000000 0.000000 0.000001 -0.000000 0.000000 0.000001 -0.000000 0.000000 0.000001 -0.000000 0.000000 0.000001 -0.000000 0.000000 0.000001 -0.000000 0.000000 0.000000 0.000000 0.000000 0.000000 0.000000 0.000000 0.000000 0.000000 0.000000 
